<svg width="7266" height="913" viewBox="0 0 7266 913" fill="none" xmlns="http://www.w3.org/2000/svg">
<path d="M10.8 769C3.6 769 2.5481e-06 765.4 2.5481e-06 758.2L9.9 190.3C9.9 183.1 13.2 179.5 19.8 179.5H138.6C144.6 179.5 148.8 182.2 151.2 187.6L256.5 490L360.9 187.6C363.3 182.2 367.2 179.5 372.6 179.5H492.3C498.9 179.5 502.2 183.1 502.2 190.3L512.1 758.2C512.1 765.4 508.5 769 501.3 769H405.9C399.3 769 396 765.4 396 758.2L392.4 509.8C391.8 481 392.1 454 393.3 428.8C394.5 403.6 396 379.9 397.8 357.7H395.1C388.5 378.1 381.3 399.1 373.5 420.7C366.3 441.7 358.5 462.4 350.1 482.8L268.2 694.3C266.4 699.7 263.1 702.4 258.3 702.4H252.9C248.1 702.4 245.1 699.7 243.9 694.3L161.1 481.9C152.7 461.5 144.9 440.8 137.7 419.8C130.5 398.2 123.6 377.5 117 357.7H115.2C116.4 379.3 117.6 402.7 118.8 427.9C120 453.1 120.3 480.1 119.7 508.9L116.1 758.2C116.1 765.4 112.8 769 106.2 769H10.8ZM555.694 769C547.894 769 545.494 765.1 548.494 757.3L696.994 187.6C698.194 182.2 701.794 179.5 707.794 179.5H834.694C840.694 179.5 844.594 182.2 846.394 187.6L995.794 757.3C997.594 765.1 994.894 769 987.694 769H879.694C874.294 769 870.694 766.3 868.894 760.9L795.094 409.9C790.294 389.5 786.094 369.1 782.494 348.7C778.894 328.3 775.294 308.2 771.694 288.4H769.894C766.294 308.2 762.394 328.3 758.194 348.7C754.594 369.1 750.994 389.5 747.394 409.9L671.794 760C671.194 766 667.594 769 660.994 769H555.694ZM678.094 650.2L696.094 554.8H842.794L862.594 650.2H678.094ZM1049.86 769C1043.26 769 1039.96 765.4 1039.96 758.2V190.3C1039.96 183.1 1043.26 179.5 1049.86 179.5H1208.26C1276.66 179.5 1326.46 194.2 1357.66 223.6C1389.46 252.4 1405.36 296.8 1405.36 356.8C1405.36 398.8 1398.16 433.3 1383.76 460.3C1369.36 487.3 1347.76 506.8 1318.96 518.8V519.7L1431.46 755.5C1435.66 764.5 1433.26 769 1424.26 769H1316.26C1310.86 769 1306.96 766.6 1304.56 761.8L1206.46 539.5H1157.86V758.2C1157.86 765.4 1154.56 769 1147.96 769H1049.86ZM1157.86 442.3H1207.36C1235.56 442.3 1255.96 436 1268.56 423.4C1281.76 410.2 1288.36 389.5 1288.36 361.3C1288.36 333.1 1282.06 313 1269.46 301C1256.86 289 1236.76 283 1209.16 283H1157.86V442.3ZM1503.37 769C1496.77 769 1493.47 765.4 1493.47 758.2V190.3C1493.47 183.1 1496.77 179.5 1503.37 179.5H1601.47C1608.07 179.5 1611.37 183.1 1611.37 190.3V758.2C1611.37 765.4 1608.07 769 1601.47 769H1503.37ZM1682.87 909.4C1675.07 911.2 1670.27 908.8 1668.47 902.2L1644.17 823C1642.97 819.4 1643.27 816.1 1645.07 813.1C1646.27 810.7 1648.67 809.2 1652.27 808.6C1664.27 805 1673.87 799 1681.07 790.6C1688.87 782.2 1694.87 769.9 1699.07 753.7C1703.27 737.5 1705.37 716.8 1705.37 691.6V190.3C1705.37 183.1 1708.67 179.5 1715.27 179.5H1813.37C1819.37 179.5 1822.37 183.1 1822.37 190.3V685.3C1822.37 731.5 1817.27 769.9 1807.07 800.5C1796.87 831.7 1781.27 856 1760.27 873.4C1739.87 891.4 1714.07 903.4 1682.87 909.4ZM1873.17 769C1865.37 769 1862.97 765.1 1865.97 757.3L2014.47 187.6C2015.67 182.2 2019.27 179.5 2025.27 179.5H2152.17C2158.17 179.5 2162.07 182.2 2163.87 187.6L2313.27 757.3C2315.07 765.1 2312.37 769 2305.17 769H2197.17C2191.77 769 2188.17 766.3 2186.37 760.9L2112.57 409.9C2107.77 389.5 2103.57 369.1 2099.97 348.7C2096.37 328.3 2092.77 308.2 2089.17 288.4H2087.37C2083.77 308.2 2079.87 328.3 2075.67 348.7C2072.07 369.1 2068.47 389.5 2064.87 409.9L1989.27 760C1988.67 766 1985.07 769 1978.47 769H1873.17ZM1995.57 650.2L2013.57 554.8H2160.27L2180.07 650.2H1995.57ZM2367.34 769C2360.74 769 2357.44 765.4 2357.44 758.2V190.3C2357.44 183.1 2360.74 179.5 2367.34 179.5H2495.14C2500.54 179.5 2504.14 181.9 2505.94 186.7L2602.24 457.6C2608.84 473.2 2615.14 490.3 2621.14 508.9C2627.14 527.5 2632.84 545.8 2638.24 563.8C2643.64 581.2 2648.14 597.1 2651.74 611.5H2654.44C2653.24 595.3 2651.74 576.4 2649.94 554.8C2648.74 532.6 2647.84 510.4 2647.24 488.2C2646.64 465.4 2646.34 446.2 2646.34 430.6V190.3C2646.34 183.1 2649.34 179.5 2655.34 179.5H2748.04C2754.64 179.5 2757.94 183.1 2757.94 190.3V758.2C2757.94 765.4 2754.64 769 2748.04 769H2621.14C2616.34 769 2612.74 766.6 2610.34 761.8L2514.04 498.1C2504.44 471.7 2495.44 444.7 2487.04 417.1C2479.24 389.5 2472.04 364.3 2465.44 341.5H2462.74C2464.54 358.3 2465.74 378.1 2466.34 400.9C2466.94 423.7 2467.54 446.2 2468.14 468.4C2469.34 490.6 2469.94 510.4 2469.94 527.8V758.2C2469.94 765.4 2466.34 769 2459.14 769H2367.34ZM2810.97 769C2803.17 769 2800.77 765.1 2803.77 757.3L2952.27 187.6C2953.47 182.2 2957.07 179.5 2963.07 179.5H3089.97C3095.97 179.5 3099.87 182.2 3101.67 187.6L3251.07 757.3C3252.87 765.1 3250.17 769 3242.97 769H3134.97C3129.57 769 3125.97 766.3 3124.17 760.9L3050.37 409.9C3045.57 389.5 3041.37 369.1 3037.77 348.7C3034.17 328.3 3030.57 308.2 3026.97 288.4H3025.17C3021.57 308.2 3017.67 328.3 3013.47 348.7C3009.87 369.1 3006.27 389.5 3002.67 409.9L2927.07 760C2926.47 766 2922.87 769 2916.27 769H2810.97ZM2933.37 650.2L2951.37 554.8H3098.07L3117.87 650.2H2933.37ZM3479.06 776.2C3413.66 776.2 3363.56 758.8 3328.76 724C3293.96 689.2 3276.56 635.8 3276.56 563.8V385.6C3276.56 314.8 3293.96 261.7 3328.76 226.3C3363.56 190.3 3413.66 172.3 3479.06 172.3C3524.66 172.3 3563.06 181 3594.26 198.4C3625.46 215.8 3648.26 240.1 3662.66 271.3C3677.66 302.5 3682.46 339.4 3677.06 382C3676.46 389.8 3673.16 393.7 3667.16 393.7H3569.06C3562.46 393.7 3559.46 389.8 3560.06 382C3562.46 348.4 3557.06 322.6 3543.86 304.6C3530.66 286 3509.36 276.7 3479.96 276.7C3451.16 276.7 3429.56 285.7 3415.16 303.7C3401.36 321.1 3394.46 349.3 3394.46 388.3V558.4C3394.46 598.6 3401.66 627.7 3416.06 645.7C3430.46 663.1 3451.76 671.8 3479.96 671.8C3511.16 671.8 3532.76 662.2 3544.76 643C3557.36 623.2 3562.76 597.4 3560.96 565.6C3560.36 558.4 3563.36 554.8 3569.96 554.8H3667.16C3673.16 554.8 3676.76 558.4 3677.96 565.6C3683.96 630.4 3669.56 681.7 3634.76 719.5C3599.96 757.3 3548.06 776.2 3479.06 776.2ZM3471.86 126.4L3376.46 81.3999C3372.26 79.6 3370.16 75.7 3370.16 69.7V11.1999C3370.16 4.59995 3373.76 2.79996 3380.96 5.79996L3478.16 43.6L3574.46 5.79996C3582.26 2.19997 3586.16 3.99996 3586.16 11.1999V69.7C3586.16 75.1 3584.06 79 3579.86 81.3999L3484.46 126.4C3480.26 128.8 3476.06 128.8 3471.86 126.4ZM3716.24 769C3708.44 769 3706.04 765.1 3709.04 757.3L3857.54 187.6C3858.74 182.2 3862.34 179.5 3868.34 179.5H3995.24C4001.24 179.5 4005.14 182.2 4006.94 187.6L4156.34 757.3C4158.14 765.1 4155.44 769 4148.24 769H4040.24C4034.84 769 4031.24 766.3 4029.44 760.9L3955.64 409.9C3950.84 389.5 3946.64 369.1 3943.04 348.7C3939.44 328.3 3935.84 308.2 3932.24 288.4H3930.44C3926.84 308.2 3922.94 328.3 3918.74 348.7C3915.14 369.1 3911.54 389.5 3907.94 409.9L3832.34 760C3831.74 766 3828.14 769 3821.54 769H3716.24ZM3838.64 650.2L3856.64 554.8H4003.34L4023.14 650.2H3838.64ZM4210.4 769C4203.8 769 4200.5 765.4 4200.5 758.2V190.3C4200.5 183.1 4203.8 179.5 4210.4 179.5H4338.2C4343.6 179.5 4347.2 181.9 4349 186.7L4445.3 457.6C4451.9 473.2 4458.2 490.3 4464.2 508.9C4470.2 527.5 4475.9 545.8 4481.3 563.8C4486.7 581.2 4491.2 597.1 4494.8 611.5H4497.5C4496.3 595.3 4494.8 576.4 4493 554.8C4491.8 532.6 4490.9 510.4 4490.3 488.2C4489.7 465.4 4489.4 446.2 4489.4 430.6V190.3C4489.4 183.1 4492.4 179.5 4498.4 179.5H4591.1C4597.7 179.5 4601 183.1 4601 190.3V758.2C4601 765.4 4597.7 769 4591.1 769H4464.2C4459.4 769 4455.8 766.6 4453.4 761.8L4357.1 498.1C4347.5 471.7 4338.5 444.7 4330.1 417.1C4322.3 389.5 4315.1 364.3 4308.5 341.5H4305.8C4307.6 358.3 4308.8 378.1 4309.4 400.9C4310 423.7 4310.6 446.2 4311.2 468.4C4312.4 490.6 4313 510.4 4313 527.8V758.2C4313 765.4 4309.4 769 4302.2 769H4210.4ZM4654.03 769C4646.23 769 4643.83 765.1 4646.83 757.3L4795.33 187.6C4796.53 182.2 4800.13 179.5 4806.13 179.5H4933.03C4939.03 179.5 4942.93 182.2 4944.73 187.6L5094.13 757.3C5095.93 765.1 5093.23 769 5086.03 769H4978.03C4972.63 769 4969.03 766.3 4967.23 760.9L4893.43 409.9C4888.63 389.5 4884.43 369.1 4880.83 348.7C4877.23 328.3 4873.63 308.2 4870.03 288.4H4868.23C4864.63 308.2 4860.73 328.3 4856.53 348.7C4852.93 369.1 4849.33 389.5 4845.73 409.9L4770.13 760C4769.53 766 4765.93 769 4759.33 769H4654.03ZM4776.43 650.2L4794.43 554.8H4941.13L4960.93 650.2H4776.43ZM5148.2 769C5141.6 769 5138.3 765.4 5138.3 758.2V190.3C5138.3 183.1 5141.6 179.5 5148.2 179.5H5246.3C5252.9 179.5 5256.2 183.1 5256.2 190.3V320.8C5256.2 332.8 5255.9 346.3 5255.3 361.3C5255.3 375.7 5254.7 390.4 5253.5 405.4C5252.9 420.4 5252 433.9 5250.8 445.9H5253.5C5261.3 428.5 5269.7 409.6 5278.7 389.2C5288.3 368.2 5298.8 346.6 5310.2 324.4L5398.4 184.9C5400.2 181.3 5404.1 179.5 5410.1 179.5H5523.5C5527.1 179.5 5529.5 180.7 5530.7 183.1C5531.9 185.5 5531.3 188.8 5528.9 193L5387.6 423.4L5546.9 755.5C5548.7 759.1 5549 762.4 5547.8 765.4C5546.6 767.8 5544.2 769 5540.6 769H5422.7C5417.3 769 5413.4 766.6 5411 761.8L5305.7 522.4L5256.2 594.4V758.2C5256.2 765.4 5252.9 769 5246.3 769H5148.2ZM5675.09 776.2C5651.69 776.2 5633.39 770.5 5620.19 759.1C5606.99 747.1 5600.39 730.9 5600.39 710.5V692.5C5600.39 671.5 5606.99 655.3 5620.19 643.9C5633.39 632.5 5651.69 626.8 5675.09 626.8C5724.29 626.8 5748.89 648.7 5748.89 692.5V710.5C5748.89 730.9 5742.59 747.1 5729.99 759.1C5717.99 770.5 5699.69 776.2 5675.09 776.2ZM6007.68 776.2C5942.28 776.2 5892.18 758.8 5857.38 724C5822.58 689.2 5805.18 635.8 5805.18 563.8V385.6C5805.18 314.8 5822.58 261.7 5857.38 226.3C5892.18 190.3 5942.28 172.3 6007.68 172.3C6053.28 172.3 6091.68 181 6122.88 198.4C6154.08 215.8 6176.88 240.1 6191.28 271.3C6206.28 302.5 6211.08 339.4 6205.68 382C6205.08 389.8 6201.78 393.7 6195.78 393.7H6097.68C6091.08 393.7 6088.08 389.8 6088.68 382C6091.08 348.4 6085.68 322.6 6072.48 304.6C6059.28 286 6037.98 276.7 6008.58 276.7C5979.78 276.7 5958.18 285.7 5943.78 303.7C5929.98 321.1 5923.08 349.3 5923.08 388.3V558.4C5923.08 598.6 5930.28 627.7 5944.68 645.7C5959.08 663.1 5980.38 671.8 6008.58 671.8C6039.78 671.8 6061.38 662.2 6073.38 643C6085.98 623.2 6091.38 597.4 6089.58 565.6C6088.98 558.4 6091.98 554.8 6098.58 554.8H6195.78C6201.78 554.8 6205.38 558.4 6206.58 565.6C6212.58 630.4 6198.18 681.7 6163.38 719.5C6128.58 757.3 6076.68 776.2 6007.68 776.2ZM6477.01 776.2C6411.01 776.2 6360.61 758.5 6325.81 723.1C6291.61 687.7 6274.51 635.8 6274.51 567.4V382C6274.51 313 6291.61 260.8 6325.81 225.4C6360.61 190 6411.01 172.3 6477.01 172.3C6544.21 172.3 6594.91 190 6629.11 225.4C6663.91 260.8 6681.31 313 6681.31 382V567.4C6681.31 635.8 6663.91 687.7 6629.11 723.1C6594.91 758.5 6544.21 776.2 6477.01 776.2ZM6477.01 671.8C6506.41 671.8 6528.01 663.1 6541.81 645.7C6556.21 627.7 6563.41 600.1 6563.41 562.9V386.5C6563.41 348.7 6556.21 321.1 6541.81 303.7C6528.01 285.7 6506.41 276.7 6477.01 276.7C6448.81 276.7 6427.51 285.7 6413.11 303.7C6399.31 321.1 6392.41 348.7 6392.41 386.5V562.9C6392.41 600.1 6399.31 627.7 6413.11 645.7C6427.51 663.1 6448.81 671.8 6477.01 671.8ZM6764.32 769C6757.12 769 6753.52 765.4 6753.52 758.2L6763.42 190.3C6763.42 183.1 6766.72 179.5 6773.32 179.5H6892.12C6898.12 179.5 6902.32 182.2 6904.72 187.6L7010.02 490L7114.42 187.6C7116.82 182.2 7120.72 179.5 7126.12 179.5H7245.82C7252.42 179.5 7255.72 183.1 7255.72 190.3L7265.62 758.2C7265.62 765.4 7262.02 769 7254.82 769H7159.42C7152.82 769 7149.52 765.4 7149.52 758.2L7145.92 509.8C7145.32 481 7145.62 454 7146.82 428.8C7148.02 403.6 7149.52 379.9 7151.32 357.7H7148.62C7142.02 378.1 7134.82 399.1 7127.02 420.7C7119.82 441.7 7112.02 462.4 7103.62 482.8L7021.72 694.3C7019.92 699.7 7016.62 702.4 7011.82 702.4H7006.42C7001.62 702.4 6998.62 699.7 6997.42 694.3L6914.62 481.9C6906.22 461.5 6898.42 440.8 6891.22 419.8C6884.02 398.2 6877.12 377.5 6870.52 357.7H6868.72C6869.92 379.3 6871.12 402.7 6872.32 427.9C6873.52 453.1 6873.82 480.1 6873.22 508.9L6869.62 758.2C6869.62 765.4 6866.32 769 6859.72 769H6764.32Z" fill="#C29842"/>
</svg>
